<mxfile host="65bd71144e">
    <diagram id="Uhb_bpezcjr28JnNViiC" name="Page-1">
        <mxGraphModel dx="806" dy="663" grid="1" gridSize="10" guides="1" tooltips="1" connect="1" arrows="1" fold="1" page="1" pageScale="1" pageWidth="850" pageHeight="1100" math="0" shadow="0">
            <root>
                <mxCell id="0"/>
                <mxCell id="1" parent="0"/>
                <UserObject label="Ambulance" tooltip="This class defines an 'Ambulance'; effectively any resource that responds to a patient/incident. This includes HEMS, which is a child class of Ambulance." id="2">
                    <mxCell style="swimlane;fontStyle=1;align=center;verticalAlign=top;childLayout=stackLayout;horizontal=1;startSize=26;horizontalStack=0;resizeParent=1;resizeParentMax=0;resizeLast=0;collapsible=1;marginBottom=0;" vertex="1" parent="1">
                        <mxGeometry x="170" y="50" width="160" height="174" as="geometry"/>
                    </mxCell>
                </UserObject>
                <mxCell id="3" value="+ mobile: str&#10;+ as_scene: str&#10;+ leaving_scene: str&#10;+ at_hospital: str&#10;+ stood_down: str&#10;+ ambulance_type: str&#10;+ callsign: str" style="text;strokeColor=none;fillColor=none;align=left;verticalAlign=top;spacingLeft=4;spacingRight=4;overflow=hidden;rotatable=0;points=[[0,0.5],[1,0.5]];portConstraint=eastwest;" vertex="1" parent="2">
                    <mxGeometry y="26" width="160" height="114" as="geometry"/>
                </mxCell>
                <mxCell id="4" value="" style="line;strokeWidth=1;fillColor=none;align=left;verticalAlign=middle;spacingTop=-1;spacingLeft=3;spacingRight=3;rotatable=0;labelPosition=right;points=[];portConstraint=eastwest;strokeColor=inherit;" vertex="1" parent="2">
                    <mxGeometry y="140" width="160" height="8" as="geometry"/>
                </mxCell>
                <mxCell id="5" value="+ what_am_i: None" style="text;strokeColor=none;fillColor=none;align=left;verticalAlign=top;spacingLeft=4;spacingRight=4;overflow=hidden;rotatable=0;points=[[0,0.5],[1,0.5]];portConstraint=eastwest;" vertex="1" parent="2">
                    <mxGeometry y="148" width="160" height="26" as="geometry"/>
                </mxCell>
                <UserObject label="HEMS" tooltip="This class defines a HEMS resource" id="6">
                    <mxCell style="swimlane;fontStyle=1;align=center;verticalAlign=top;childLayout=stackLayout;horizontal=1;startSize=26;horizontalStack=0;resizeParent=1;resizeParentMax=0;resizeLast=0;collapsible=1;marginBottom=0;" vertex="1" parent="1">
                        <mxGeometry x="160" y="420" width="380" height="290" as="geometry"/>
                    </mxCell>
                </UserObject>
                <mxCell id="7" value="+ callsign_group: str&#10;+ available: int = 1&#10;+ being_serviced: bool = False&#10;+ flying_time: int = 0&#10;+ vehicle_type: str&#10;+ category: str&#10;+ summer_start: int&#10;+ winter_start: int&#10;+ summer_end: int&#10;+ winter_end: int&#10;+ servicing_schedule: pd.DataFrame&#10;+ in_use: bool = False&#10;+ resource_id: int" style="text;strokeColor=none;fillColor=none;align=left;verticalAlign=top;spacingLeft=4;spacingRight=4;overflow=hidden;rotatable=0;points=[[0,0.5],[1,0.5]];portConstraint=eastwest;" vertex="1" parent="6">
                    <mxGeometry y="26" width="380" height="204" as="geometry"/>
                </mxCell>
                <mxCell id="8" value="" style="line;strokeWidth=1;fillColor=none;align=left;verticalAlign=middle;spacingTop=-1;spacingLeft=3;spacingRight=3;rotatable=0;labelPosition=right;points=[];portConstraint=eastwest;strokeColor=inherit;" vertex="1" parent="6">
                    <mxGeometry y="230" width="380" height="8" as="geometry"/>
                </mxCell>
                <mxCell id="9" value="+ unavailable_due_to_service(current_df: pd.Timestamp): bool&#10;+ hems_resource_on_shift(hour: int, season: int): bool" style="text;strokeColor=none;fillColor=none;align=left;verticalAlign=top;spacingLeft=4;spacingRight=4;overflow=hidden;rotatable=0;points=[[0,0.5],[1,0.5]];portConstraint=eastwest;" vertex="1" parent="6">
                    <mxGeometry y="238" width="380" height="52" as="geometry"/>
                </mxCell>
                <mxCell id="10" style="edgeStyle=orthogonalEdgeStyle;html=1;exitX=1;exitY=0.5;exitDx=0;exitDy=0;entryX=0.5;entryY=0;entryDx=0;entryDy=0;endArrow=none;endFill=0;rounded=0;startArrow=block;startFill=0;" edge="1" parent="1" source="3" target="6">
                    <mxGeometry relative="1" as="geometry"/>
                </mxCell>
                <UserObject label="HEMSAvailability" tooltip="This class is a filter store which can provide HEMS resources based on the time of day and servicing schedule" id="11">
                    <mxCell style="swimlane;fontStyle=1;align=center;verticalAlign=top;childLayout=stackLayout;horizontal=1;startSize=26;horizontalStack=0;resizeParent=1;resizeParentMax=0;resizeLast=0;collapsible=1;marginBottom=0;" vertex="1" parent="1">
                        <mxGeometry x="450" y="20" width="360" height="230" as="geometry"/>
                    </mxCell>
                </UserObject>
                <mxCell id="12" value="+ env: simpy.Environment&#10;+ utilityClass: Custom class Utils&#10;+ servicing_overlap_allowed: bool = False&#10;+ servicing_buffer_weeks: int = 4&#10;+ store = simpy.FilterStore&#10;" style="text;strokeColor=none;fillColor=none;align=left;verticalAlign=top;spacingLeft=4;spacingRight=4;overflow=hidden;rotatable=0;points=[[0,0.5],[1,0.5]];portConstraint=eastwest;" vertex="1" parent="11">
                    <mxGeometry y="26" width="360" height="94" as="geometry"/>
                </mxCell>
                <mxCell id="13" value="" style="line;strokeWidth=1;fillColor=none;align=left;verticalAlign=middle;spacingTop=-1;spacingLeft=3;spacingRight=3;rotatable=0;labelPosition=right;points=[];portConstraint=eastwest;strokeColor=inherit;" vertex="1" parent="11">
                    <mxGeometry y="120" width="360" height="8" as="geometry"/>
                </mxCell>
                <mxCell id="14" value="+ calculate_service_schedule_and_populate_store()&#10;+ add_hems()&#10;+ preferred_group_available(preferred_group: str, &#10;                                              preferred_vehicle_type: str)&#10;+ allocate_resource(pt: Patient)&#10;+ return_resource(resource)" style="text;strokeColor=none;fillColor=none;align=left;verticalAlign=top;spacingLeft=4;spacingRight=4;overflow=hidden;rotatable=0;points=[[0,0.5],[1,0.5]];portConstraint=eastwest;" vertex="1" parent="11">
                    <mxGeometry y="128" width="360" height="102" as="geometry"/>
                </mxCell>
                <mxCell id="15" value="Patient" style="swimlane;fontStyle=1;align=center;verticalAlign=top;childLayout=stackLayout;horizontal=1;startSize=26;horizontalStack=0;resizeParent=1;resizeParentMax=0;resizeLast=0;collapsible=1;marginBottom=0;" vertex="1" parent="1">
                    <mxGeometry x="880" y="10" width="310" height="624" as="geometry"/>
                </mxCell>
                <mxCell id="16" value="+ id: int&#10;&#10;+ ampds_card: str = &quot;&quot;&#10;&#10;+ postcode: str = &quot;&quot;&#10;+ lat: str = &quot;&quot;&#10;+ long: str = &quot;&quot;&#10;&#10;+ age: int = 0&#10;+ sex: str = &quot;female&quot;&#10;&#10;+ time_in_sim: int&#10;&#10;+ hour: int = 0&#10;+ day: str = &quot;Mon&quot;&#10;+ month: int = 1&#10;+ qtr: int = 1&#10;+ weekday: str = &quot;weekday&quot;&#10;+ current_dt: None = None&#10;&#10;+ time_to_cc: int = 0&#10;+ cc_conveyed = 0&#10;+ cc_flown = 0&#10;+ cc_travelled_with: int = 0&#10;+ hems_case: int bool flag = -1&#10;+ hems: int bool flag = -1&#10;+ hems_result: str = &quot;&quot;&#10;+ hems_pref_vehicle_type: str = &quot;&quot;&#10;+ hems_pref_callsign_group: str = &quot;&quot;&#10;+ hems_vehicle_type: str = &quot;&quot;&#10;+ hems_callsign_group: str = &quot;&quot;&#10;&#10;+ pt_outcome: str = &quot;&quot;&#10;&#10;+ cc_desk: int = 0&#10;&#10;+ dispatcher_intervention: int = 0&#10;&#10;+ time_to_first_response: int = 0" style="text;strokeColor=none;fillColor=none;align=left;verticalAlign=top;spacingLeft=4;spacingRight=4;overflow=hidden;rotatable=0;points=[[0,0.5],[1,0.5]];portConstraint=eastwest;" vertex="1" parent="15">
                    <mxGeometry y="26" width="310" height="564" as="geometry"/>
                </mxCell>
                <mxCell id="17" value="" style="line;strokeWidth=1;fillColor=none;align=left;verticalAlign=middle;spacingTop=-1;spacingLeft=3;spacingRight=3;rotatable=0;labelPosition=right;points=[];portConstraint=eastwest;strokeColor=inherit;" vertex="1" parent="15">
                    <mxGeometry y="590" width="310" height="8" as="geometry"/>
                </mxCell>
                <mxCell id="18" value="NO Methods" style="text;strokeColor=none;fillColor=none;align=left;verticalAlign=top;spacingLeft=4;spacingRight=4;overflow=hidden;rotatable=0;points=[[0,0.5],[1,0.5]];portConstraint=eastwest;fontStyle=2" vertex="1" parent="15">
                    <mxGeometry y="598" width="310" height="26" as="geometry"/>
                </mxCell>
            </root>
        </mxGraphModel>
    </diagram>
</mxfile>
